{
  "accessors": [
    {
      "bufferView": 2,
      "componentType": 5126,
      "count": 4550,
      "max": [
        37.945842742919922,
        31.370105743408203,
        26.404424667358398
      ],
      "min": [
        -37.945842742919922,
        -39.086483001708984,
        -31.160787582397461
      ],
      "type": "VEC3"
    },
    {
      "bufferView": 2,
      "byteOffset": 54600,
      "componentType": 5126,
      "count": 4550,
      "max": [
        0.99825453758239746,
        0.97997921705245972,
        0.99444293975830078
      ],
      "min": [
        -0.99825453758239746,
        -0.98089337348937988,
        -0.99963545799255371
      ],
      "type": "VEC3"
    },
    {
      "bufferView": 3,
      "componentType": 5126,
      "count": 4550,
      "max": [
        0.99075114727020264,
        0.98509961366653442,
        0.9933779239654541,
        1
      ],
      "min": [
        -0.99997031688690186,
        -0.99588364362716675,
        -0.99889880418777466,
        -1
      ],
      "type": "VEC4"
    },
    {
      "bufferView": 1,
      "componentType": 5126,
      "count": 4550,
      "max": [
        0.9805108904838562,
        0.9923701286315918
      ],
      "min": [
        0.03319162130355835,
        0.024753987789154053
      ],
      "type": "VEC2"
    },
    {
      "bufferView": 0,
      "componentType": 5125,
      "count": 6726,
      "max": [
        4549
      ],
      "min": [
        0
      ],
      "type": "SCALAR"
    }
  ],
  "asset": {
    "extras": {
      "author": "Jnera (https://sketchfab.com/Jnera)",
      "license": "CC-BY-4.0 (http://creativecommons.org/licenses/by/4.0/)",
      "source": "https://sketchfab.com/3d-models/octopus-low-b6101708f1ad4af9b7c697203a1f2d46",
      "title": "octopus_low"
    },
    "generator": "Sketchfab-8.7.0",
    "version": "2.0"
  },
  "bufferViews": [
    {
      "buffer": 0,
      "byteLength": 26904,
      "byteOffset": 0,
      "name": "floatBufferViews",
      "target": 34963
    },
    {
      "buffer": 0,
      "byteLength": 36400,
      "byteOffset": 26904,
      "byteStride": 8,
      "name": "floatBufferViews",
      "target": 34962
    },
    {
      "buffer": 0,
      "byteLength": 109200,
      "byteOffset": 63304,
      "byteStride": 12,
      "name": "floatBufferViews",
      "target": 34962
    },
    {
      "buffer": 0,
      "byteLength": 72800,
      "byteOffset": 172504,
      "byteStride": 16,
      "name": "floatBufferViews",
      "target": 34962
    }
  ],
  "buffers": [
    {
      "byteLength": 245304,
      "uri": "scene.bin"
    }
  ],
  "images": [
    {
      "uri": "textures/Octopus_metallicRoughness.png"
    },
    {
      "uri": "textures/Octopus_normal.png"
    }
  ],
  "materials": [
    {
      "doubleSided": true,
      "emissiveFactor": [
        0,
        0,
        0
      ],
      "name": "Octopus",
      "normalTexture": {
        "index": 1,
        "scale": 1,
        "texCoord": 0
      },
      "occlusionTexture": {
        "index": 0,
        "strength": 1,
        "texCoord": 0
      },
      "pbrMetallicRoughness": {
        "baseColorFactor": [
          0.38350000000000001,
          0,
          0,
          1
        ],
        "metallicFactor": 0,
        "metallicRoughnessTexture": {
          "index": 0,
          "texCoord": 0
        },
        "roughnessFactor": 0.5489518267553557
      }
    }
  ],
  "meshes": [
    {
      "name": "Cube_Octopus_0",
      "primitives": [
        {
          "attributes": {
            "NORMAL": 1,
            "POSITION": 0,
            "TANGENT": 2,
            "TEXCOORD_0": 3
          },
          "indices": 4,
          "material": 0,
          "mode": 4
        }
      ]
    }
  ],
  "nodes": [
    {
      "children": [
        1
      ],
      "name": "RootNode (gltf orientation matrix)",
      "rotation": [
        -0.70710678118654746,
        -0,
        -0,
        0.70710678118654757
      ]
    },
    {
      "children": [
        2
      ],
      "name": "RootNode (model correction matrix)"
    },
    {
      "children": [
        3
      ],
      "matrix": [
        1,
        0,
        0,
        0,
        0,
        0,
        1,
        0,
        0,
        -1,
        0,
        0,
        0,
        0,
        0,
        1
      ],
      "name": "4ccc69294d5a42c591c7636cea27b3d0.fbx"
    },
    {
      "children": [
        4
      ],
      "name": "RootNode"
    },
    {
      "children": [
        5
      ],
      "matrix": [
        17.771520614624023,
        0,
        0,
        0,
        -0,
        -2.8953482123604833e-06,
        -17.771520614623789,
        0,
        0,
        17.771520614623789,
        -2.8953482123604833e-06,
        0,
        -1.862645149230957e-07,
        0,
        0,
        1
      ],
      "name": "Cube"
    },
    {
      "mesh": 0,
      "name": "Cube_Octopus_0"
    }
  ],
  "samplers": [
    {
      "magFilter": 9729,
      "minFilter": 9987,
      "wrapS": 10497,
      "wrapT": 10497
    }
  ],
  "scene": 0,
  "scenes": [
    {
      "name": "OSG_Scene",
      "nodes": [
        0
      ]
    }
  ],
  "textures": [
    {
      "sampler": 0,
      "source": 0
    },
    {
      "sampler": 0,
      "source": 1
    }
  ]
}

